<svg width="50" height="50" viewBox="0 0 50 50" fill="none" xmlns="http://www.w3.org/2000/svg">
<path d="M9.18754 34.8958C8.68754 40.9166 13.2292 45.8333 19.2709 45.8333H29.25C36.0417 45.8333 40.7084 40.3541 39.5834 33.6458C38.3959 26.6041 31.6042 20.8333 24.4584 20.8333C16.7084 20.8333 9.83337 27.1666 9.18754 34.8958Z" stroke="#171717" stroke-width="1.5" stroke-linecap="round" stroke-linejoin="round"/>
<path d="M21.8126 15.625C24.6891 15.625 27.0209 13.2931 27.0209 10.4166C27.0209 7.54016 24.6891 5.20831 21.8126 5.20831C18.9361 5.20831 16.6042 7.54016 16.6042 10.4166C16.6042 13.2931 18.9361 15.625 21.8126 15.625Z" stroke="#171717" stroke-width="1.5" stroke-linecap="round" stroke-linejoin="round"/>
<path d="M36.0417 18.125C38.3429 18.125 40.2083 16.2595 40.2083 13.9584C40.2083 11.6572 38.3429 9.79169 36.0417 9.79169C33.7405 9.79169 31.875 11.6572 31.875 13.9584C31.875 16.2595 33.7405 18.125 36.0417 18.125Z" stroke="#171717" stroke-width="1.5" stroke-linecap="round" stroke-linejoin="round"/>
<path d="M43.75 26.4583C45.4759 26.4583 46.875 25.0592 46.875 23.3333C46.875 21.6074 45.4759 20.2083 43.75 20.2083C42.0241 20.2083 40.625 21.6074 40.625 23.3333C40.625 25.0592 42.0241 26.4583 43.75 26.4583Z" stroke="#171717" stroke-width="1.5" stroke-linecap="round" stroke-linejoin="round"/>
<path d="M8.27092 22.2916C10.5721 22.2916 12.4376 20.4262 12.4376 18.125C12.4376 15.8238 10.5721 13.9583 8.27092 13.9583C5.96973 13.9583 4.10425 15.8238 4.10425 18.125C4.10425 20.4262 5.96973 22.2916 8.27092 22.2916Z" stroke="#171717" stroke-width="1.5" stroke-linecap="round" stroke-linejoin="round"/>
</svg>
