<svg width="30" height="32" viewBox="0 0 30 32" fill="none" xmlns="http://www.w3.org/2000/svg">
<rect y="6.9541" width="30" height="25.0459" fill="#EEEEEE"/>
<path d="M0 6.95417C0 4.59809 1.90998 2.68811 4.26605 2.68811H25.7339C28.09 2.68811 30 4.59809 30 6.95417V6.95417H0V6.95417Z" fill="#F56565"/>
<path d="M7.09082 2L7.09082 3.37615" stroke="#A9A7A7" stroke-width="4" stroke-linecap="round"/>
<path d="M15 2L15 3.37615" stroke="#A9A7A7" stroke-width="4" stroke-linecap="round"/>
<path d="M22.9092 2L22.9092 3.37615" stroke="#A9A7A7" stroke-width="4" stroke-linecap="round"/>
<line y1="5.4541" x2="30" y2="5.4541" stroke="#E32323" stroke-width="3"/>
<rect x="3.40918" y="8.74316" width="4.77273" height="4.12844" fill="#D9D9D9"/>
<rect x="3.40918" y="13.9725" width="4.77273" height="4.12844" fill="#D9D9D9"/>
<rect x="3.40918" y="19.2018" width="4.77273" height="4.12844" fill="#D9D9D9"/>
<rect x="3.40918" y="24.4312" width="4.77273" height="4.12844" fill="#D9D9D9"/>
<rect x="9.54541" y="8.74316" width="4.77273" height="4.12844" fill="#D9D9D9"/>
<rect x="9.54541" y="13.9725" width="4.77273" height="4.12844" fill="#D9D9D9"/>
<rect x="9.54541" y="19.2018" width="4.77273" height="4.12844" fill="#D9D9D9"/>
<rect x="9.54541" y="24.4312" width="4.77273" height="4.12844" fill="#D9D9D9"/>
<rect x="15.6816" y="8.74316" width="4.77273" height="4.12844" fill="#D9D9D9"/>
<rect x="15.6816" y="13.9725" width="4.77273" height="4.12844" fill="#D9D9D9"/>
<rect x="15.6816" y="19.2018" width="4.77273" height="4.12844" fill="#D9D9D9"/>
<rect x="15.6816" y="24.4312" width="4.77273" height="4.12844" fill="#D9D9D9"/>
<rect x="21.8184" y="8.74316" width="4.77273" height="4.12844" fill="#D9D9D9"/>
<rect x="21.8184" y="13.9725" width="4.77273" height="4.12844" fill="#D9D9D9"/>
<rect x="21.8184" y="19.2018" width="4.77273" height="4.12844" fill="#D9D9D9"/>
<rect x="21.8184" y="24.4312" width="4.77273" height="4.12844" fill="#D9D9D9"/>
</svg>
